<svg xmlns="http://www.w3.org/2000/svg" viewBox="0 0 640 480" role="img" aria-labelledby="title desc">
  <title id="title">Wings menu placeholder</title>
  <desc id="desc">A restrained navy and cream menu placard placeholder for wing items.</desc>
  <rect width="640" height="480" rx="8" fill="#d8d8d1"/>
  <path d="M0 76h640M0 156h640M0 236h640M0 316h640M0 396h640" stroke="#b8b9b4" stroke-width="3" opacity=".42"/>
  <rect x="54" y="54" width="532" height="372" rx="8" fill="#1b2740"/>
  <rect x="78" y="78" width="484" height="324" rx="4" fill="none" stroke="#f3ead7" stroke-width="5"/>
  <path d="M246 226c0-54 46-92 94-92 38 0 66 24 66 58 0 44-46 78-100 78-34 0-60-16-60-44Z" fill="none" stroke="#f3ead7" stroke-width="8"/>
  <path d="M274 270l-34 34M372 162l34-34" stroke="#f3ead7" stroke-width="8" stroke-linecap="round"/>
  <text x="320" y="342" text-anchor="middle" font-family="Georgia, serif" font-size="38" font-weight="700" fill="#f3ead7">WINGS</text>
  <text x="320" y="376" text-anchor="middle" font-family="Arial, sans-serif" font-size="18" letter-spacing="3" fill="#c5ced0">THE ANCHOR MENU</text>
</svg>
