<svg width="800" height="600" viewBox="0 0 800 600" fill="none" xmlns="http://www.w3.org/2000/svg" role="img" aria-labelledby="title desc">
  <title id="title">Live music event placeholder</title>
  <desc id="desc">A navy and cream event placard with a simple music note.</desc>
  <rect width="800" height="600" rx="10" fill="#d8d8d1"/>
  <path d="M0 96h800M0 196h800M0 296h800M0 396h800M0 496h800" stroke="#b8b9b4" stroke-width="4" opacity=".4"/>
  <rect x="54" y="54" width="692" height="492" rx="10" fill="#1b2740"/>
  <rect x="86" y="86" width="628" height="428" rx="4" stroke="#f3ead7" stroke-width="6"/>
  <path d="M336 182v184c0 31-26 56-58 56s-58-25-58-56 26-56 58-56c12 0 24 4 34 10V224l210-42v150c0 31-26 56-58 56s-58-25-58-56 26-56 58-56c12 0 24 4 34 10V150l-162 32Z" fill="#f3ead7"/>
  <rect x="182" y="450" width="436" height="2" fill="#f3ead7" opacity=".65"/>
</svg>
