<svg width="800" height="600" viewBox="0 0 800 600" fill="none" xmlns="http://www.w3.org/2000/svg">
  <rect width="800" height="600" rx="48" fill="#F2F2EE"/>
  <rect x="36" y="36" width="728" height="528" rx="34" fill="url(#bg)"/>
  <circle cx="182" cy="142" r="78" fill="#D5CA55" fill-opacity="0.22"/>
  <circle cx="628" cy="168" r="64" fill="#59AFE2" fill-opacity="0.2"/>
  <path d="M116 396H684" stroke="#1F243A" stroke-opacity="0.18" stroke-width="18" stroke-linecap="round"/>
  <path d="M178 410C178 316 254 240 348 240H452C546 240 622 316 622 410V428H178V410Z" fill="#F7F7F4" fill-opacity="0.34"/>
  <rect x="222" y="220" width="356" height="156" rx="30" fill="#309ADD" fill-opacity="0.16" stroke="#F7F7F4" stroke-opacity="0.32"/>
  <path d="M254 214L294 268L334 214" stroke="#F7F7F4" stroke-width="12" stroke-linecap="round" stroke-linejoin="round"/>
  <path d="M398 214L438 268L478 214" stroke="#F7F7F4" stroke-width="12" stroke-linecap="round" stroke-linejoin="round"/>
  <path d="M542 214L582 268L622 214" stroke="#F7F7F4" stroke-width="12" stroke-linecap="round" stroke-linejoin="round"/>
  <defs>
    <linearGradient id="bg" x1="88" y1="72" x2="702" y2="560" gradientUnits="userSpaceOnUse">
      <stop stop-color="#65909F"/>
      <stop offset="1" stop-color="#2F6D90"/>
    </linearGradient>
  </defs>
</svg>
