<svg width="800" height="600" viewBox="0 0 800 600" fill="none" xmlns="http://www.w3.org/2000/svg" role="img" aria-labelledby="title desc">
  <title id="title">Patio party event placeholder</title>
  <desc id="desc">A navy and cream event placard with patio lights.</desc>
  <rect width="800" height="600" rx="10" fill="#d8d8d1"/>
  <path d="M0 96h800M0 196h800M0 296h800M0 396h800M0 496h800" stroke="#b8b9b4" stroke-width="4" opacity=".4"/>
  <rect x="54" y="54" width="692" height="492" rx="10" fill="#1b2740"/>
  <rect x="86" y="86" width="628" height="428" rx="4" stroke="#f3ead7" stroke-width="6"/>
  <path d="M160 210c120 72 360 72 480 0" stroke="#f3ead7" stroke-width="8" stroke-linecap="round"/>
  <path d="M220 244v36M320 266v36M400 272v36M480 266v36M580 244v36" stroke="#f3ead7" stroke-width="8" stroke-linecap="round"/>
  <path d="M220 316h360M256 316v86M544 316v86M304 402h192" stroke="#f3ead7" stroke-width="8" stroke-linecap="round"/>
  <rect x="182" y="450" width="436" height="2" fill="#f3ead7" opacity=".65"/>
</svg>
