<svg width="800" height="600" viewBox="0 0 800 600" fill="none" xmlns="http://www.w3.org/2000/svg" role="img" aria-labelledby="title desc">
  <title id="title">Trivia night event placeholder</title>
  <desc id="desc">A navy and cream event placard with a quiz card motif.</desc>
  <rect width="800" height="600" rx="10" fill="#d8d8d1"/>
  <path d="M0 96h800M0 196h800M0 296h800M0 396h800M0 496h800" stroke="#b8b9b4" stroke-width="4" opacity=".4"/>
  <rect x="54" y="54" width="692" height="492" rx="10" fill="#1b2740"/>
  <rect x="86" y="86" width="628" height="428" rx="4" stroke="#f3ead7" stroke-width="6"/>
  <rect x="248" y="176" width="304" height="222" rx="12" stroke="#f3ead7" stroke-width="8"/>
  <path d="M316 246c0-44 37-76 84-76 43 0 78 28 78 66 0 34-24 54-62 70l-16 8v38" stroke="#f3ead7" stroke-width="12" stroke-linecap="round" stroke-linejoin="round"/>
  <circle cx="400" cy="382" r="8" fill="#f3ead7"/>
  <rect x="182" y="450" width="436" height="2" fill="#f3ead7" opacity=".65"/>
</svg>
